inDegrees=yes
name=ik_data_2024_11_07_17_14
DataType=double
version=3
OpenSimVersion=4.5.1
endheader
time	pelvis_tilt	pelvis_list	pelvis_rotation	pelvis_tx	pelvis_ty	pelvis_tz	hip_flexion_r	hip_adduction_r	hip_rotation_r	knee_angle_r	knee_angle_r_beta	ankle_angle_r	subtalar_angle_r	mtp_angle_r	hip_flexion_l	hip_adduction_l	hip_rotation_l	knee_angle_l	knee_angle_l_beta	ankle_angle_l	subtalar_angle_l	mtp_angle_l	lumbar_extension	lumbar_bending	lumbar_rotation	arm_flex_r	arm_add_r	arm_rot_r	elbow_flex_r	pro_sup_r	wrist_flex_r	wrist_dev_r	arm_flex_l	arm_add_l	arm_rot_l	elbow_flex_l	pro_sup_l	wrist_flex_l	wrist_dev_l
226.212	0.3590729281013864	0.04789824175804798	-95.22741539768798	0	0.9399999999999999	0	0.4113383750888734	-0.04415489643619745	-0.1052142898955188	0.7266584744860475	0.01268258291730074	-5.081926521689382	0	0	0.3429923622006325	0.3404061131513547	-0.08962617684981643	0.5179463348643975	0.009039868892020833	-5.081926521689382	0	0	0	0	0	0	-8.979602958254974	0	72.56976359989667	46.40196925950107	0	0	0	-8.979602958254974	0	72.56976359989667	46.40196925950107	0	0
227.394	0.35636049148562	0.04223342856665804	-95.22646078422171	0	0.9399999999999999	0	0.3941052691635858	-0.03531054963003049	-0.1098094026897556	0.7319717971689164	0.0127753178923377	-5.081909267871998	0	0	0.3604715466022375	0.3435731338840849	-0.09272851660932872	0.5493796181694243	0.009588483180405716	-5.081909267871998	0	0	0	0	0	0	-8.979772889904837	0	72.56989168414235	46.40178127706758	0	0	0	-8.979772889904837	0	72.56989168414235	46.40178127706758	0	0
229.715	0.3652689454121831	-0.03657527373597586	-95.22110441872437	0	0.9399999999999999	0	0.4462957588342487	-0.1187140116491045	-0.1367822599267395	0.8792786351708356	0.01534630722617309	-5.081823510810199	0	0	0.2547240629193121	0.3537222724787654	-0.08650980702370814	0.5212862360848527	0.009098161165009154	-5.081823510810199	0	0	0	0	0	0	-8.980492135092948	0	72.5704558728243	46.40088720335449	0	0	0	-8.980492135092948	0	72.5704558728243	46.40088720335449	0	0
230.368	0.2110676074774122	-0.01679034492340485	-95.2213922502916	0	0.9399999999999999	0	0.4612431506236431	0.008613934683775842	-0.1410854079907916	0.8269232966453152	0.01443253418790653	-5.081710414494084	0	0	0.278638924573443	0.1963280445268448	-0.07724193407116166	0.5160263214477051	0.009006358336217086	-5.081710414494084	0	0	0	0	0	0	-8.981443515738624	0	72.57120208863898	46.39970630530446	0	0	0	-8.981443515738624	0	72.57120208863898	46.39970630530446	0	0
231.605	0.217287285606527	-0.007683729774677305	-95.21606985727165	0	0.9399999999999999	0	0.4135638104847543	0.04272751829185743	-0.1404597244086107	0.8353128576230424	0.0145789596497647	-5.081691145622223	0	0	0.3043551165209551	0.2109087563567417	-0.08075870901087155	0.5500128615141726	0.009599535361737917	-5.081691145622223	0	0	0	0	0	0	-8.981615805095055	0	72.57133511436012	46.39950174902584	0	0	0	-8.981615805095055	0	72.57133511436012	46.39950174902584	0	0
232.788	0.1776469977015439	-0.05919368757557182	-95.215171510483	0	0.9399999999999999	0	0.3331128300714096	0.08783635371261733	-0.1338373893718863	0.7949337172586383	0.01387421070128091	-5.081545831943375	0	0	0.2239297768962843	0.1670685173645275	-0.07168181225321836	0.5073912370737163	0.008855647682703466	-5.081545831943375	0	0	0	0	0	0	-8.982871177022307	0	72.57231571585545	46.39796933381566	0	0	0	-8.982871177022307	0	72.57231571585545	46.39796933381566	0	0
233.874	0.06391568754739055	-0.01115541782335853	-95.21540081841658	0	0.9399999999999999	0	0.3542927000308197	0.2122487269732329	-0.1199576292971716	0.7518488890268693	0.01312223859098033	-5.081446488670751	0	0	0.2639562369369284	0.05172454388475411	-0.07487024660497987	0.5190389758450091	0.009058939074674727	-5.081446488670751	0	0	0	0	0	0	-8.983756175547926	0	72.57300163012516	46.39691291713696	0	0	0	-8.983756175547926	0	72.57300163012516	46.39691291713696	0	0
235.209	-0.02435538968454212	0.04595094500811008	-95.22613143066741	0	0.9399999999999999	0	0.4361096472942751	0.348745297605033	-0.1185767242033497	0.7304540772560132	0.01274882868273446	-5.081391827223143	0	0	0.3138976916403473	-0.02620101618833354	-0.08254125669276614	0.5076165870284201	0.008859580781382268	-5.081391827223143	0	0	0	0	0	0	-8.984236190023605	0	72.57337513262908	46.3963337108539	0	0	0	-8.984236190023605	0	72.57337513262908	46.3963337108539	0	0
237.005	-0.1447067225695204	0.05391920849804081	-95.22997609913817	0	0.9399999999999999	0	0.4446987773937253	0.4276797888769422	-0.1172604819765525	0.7508248625357784	0.01310436595708315	-5.081257029647754	0	0	0.3093228997932433	-0.1584411860420596	-0.07909721534818207	0.5178597485001607	0.009038357674877571	-5.081257029647754	0	0	0	0	0	0	-8.985376737314377	0	72.5742692942828	46.39492243103548	0	0	0	-8.985376737314377	0	72.5742692942828	46.39492243103548	0	0
238.073	-0.1676007592447396	0.1022635483223318	-95.23277695139861	0	0.9399999999999999	0	0.4438836282843658	0.4936920182056345	-0.1167154841745514	0.784643668229141	0.01369461546552454	-5.081204344581114	0	0	0.3451558787624384	-0.1854626293972296	-0.08866783547381821	0.516125059843942	0.009008081646329559	-5.081204344581114	0	0	0	0	0	0	-8.985821161500068	0	72.57461794948948	46.3943713283581	0	0	0	-8.985821161500068	0	72.57461794948948	46.3943713283581	0	0
239.401	-0.01825740253625243	0.09763761694176286	-95.23092021673592	0	0.9399999999999999	0	0.5074058276899508	0.3521050278810907	-0.1232664956127543	0.8302185971067131	0.01449004803080041	-5.081093620775725	0	0	0.3720356456305237	-0.03518254492045568	-0.09207961341335426	0.5158335648819727	0.009002994099490218	-5.081093620775725	0	0	0	0	0	0	-8.986766100410094	0	72.5753574183564	46.39320878481544	0	0	0	-8.986766100410094	0	72.5753574183564	46.39320878481544	0	0
240.531	-0.02119147130328635	0.06770453544951839	-95.23059022216603	0	0.9399999999999999	0	0.500353291054906	0.3196244792077728	-0.1295254578807894	0.8427981761893625	0.01470960310430765	-5.081037372296748	0	0	0.3360248883595015	-0.03029028765822562	-0.08623059410656921	0.5116058682231883	0.008929206873018868	-5.081037372296748	0	0	0	0	0	0	-8.987242716664561	0	72.5757312178517	46.39261916077704	0	0	0	-8.987242716664561	0	72.5757312178517	46.39261916077704	0	0
241.805	-0.0115256379591381	0.07198065481458252	-95.2284588947025	0	0.9399999999999999	0	0.5487694324811719	0.3612214665932933	-0.1328072845342181	0.8357608647397132	0.01458677884902298	-5.08100632750187	0	0	0.3409654854904299	-0.02070965776710729	-0.09381916681874448	0.531622134028144	0.009278556615269697	-5.08100632750187	0	0	0	0	0	0	-8.987511965634017	0	72.57594118730597	46.39229154259082	0	0	0	-8.987511965634017	0	72.57594118730597	46.39229154259082	0	0
242.889	-0.08332888990958127	0.06637315519825968	-95.22812362923302	0	0.9399999999999999	0	0.5195599350138937	0.4244333631358833	-0.1327493706096047	0.8484814632634256	0.01480879517608609	-5.080946517662226	0	0	0.3248229767434431	-0.0914150537035411	-0.08791862207102769	0.5243271022979467	0.009151234292540295	-5.080946517662226	0	0	0	0	0	0	-8.988031338408245	0	72.57634605488829	46.39166027350988	0	0	0	-8.988031338408245	0	72.57634605488829	46.39166027350988	0	0
244.714	-0.1605146627481951	0.04445740626623075	-95.22799367643343	0	0.9399999999999999	0	0.5109548473831863	0.5078546831873262	-0.1438902196196499	0.924610548562054	0.01613749837107877	-5.08085573332173	0	0	0.291793215912787	-0.16752914149162	-0.08635132105933313	0.5120958083422812	0.008937757941234652	-5.08085573332173	0	0	0	0	0	0	-8.988842829753363	0	72.57697342329374	46.39069577381603	0	0	0	-8.988842829753363	0	72.57697342329374	46.39069577381603	0	0
245.962	-0.01726913524779785	0.02498937047475003	-95.22273291903537	0	0.9399999999999999	0	0.4659895983627812	0.3681445467213845	-0.1396596252689133	0.8885761886591531	0.01550858014692452	-5.080742618656444	0	0	0.2922144417796914	-0.02621477812664915	-0.07488811420801637	0.5164104002356006	0.00901306177565293	-5.080742618656444	0	0	0	0	0	0	-8.989814920899587	0	72.57773317480932	46.38950516293153	0	0	0	-8.989814920899587	0	72.57773317480932	46.38950516293153	0	0
247.058	-0.02326597273958413	-0.01651688577866981	-95.22048412462415	0	0.9399999999999999	0	0.5142179838419386	0.3816161355485465	-0.1532549228542264	0.8985982798976637	0.01568349863697181	-5.080717749384849	0	0	0.2589097910164057	-0.02417520236626974	-0.08658327138893007	0.5449389194076842	0.009510978365924117	-5.080717749384849	0	0	0	0	0	0	-8.99003094099559	0	72.57790132334397	46.38924294699494	0	0	0	-8.99003094099559	0	72.57790132334397	46.38924294699494	0	0
248.399	-0.01058545977531414	-0.04192040840011622	-95.21902043678031	0	0.9399999999999999	0	0.5398141335355104	0.3692367870447976	-0.1646644530577293	0.9765005832652234	0.01704315032562319	-5.080607196291949	0	0	0.2194625692843244	-0.01508612025062706	-0.07653300429062435	0.5132310173850728	0.008957571076729778	-5.080607196291949	0	0	0	0	0	0	-8.990977369273734	0	72.57864285607675	46.38807872198493	0	0	0	-8.990977369273734	0	72.57864285607675	46.38807872198493	0	0
249.532	0.01121651591245971	-0.1506881702814651	-95.20374152225331	0	0.9399999999999999	0	0.4118906783204652	0.2729131964549344	-0.169976861934473	0.9168298449686889	0.01600169947525279	-5.080502918133726	0	0	0.1205022192674626	0.01841421331470569	-0.05753584133321899	0.5164723851036274	0.009014143615686412	-5.080502918133726	0	0	0	0	0	0	-8.99186264610252	0	72.57933689029234	46.38698471404618	0	0	0	-8.99186264610252	0	72.57933689029234	46.38698471404618	0	0
250.79	-0.08152577599478422	-0.07108862365545564	-95.20986457222352	0	0.9399999999999999	0	0.44037934846126	0.3155476167360467	-0.1548271144624076	0.8969538192556419	0.01565479738434906	-5.080416211354374	0	0	0.1911335919397426	-0.08425656881864781	-0.06762069945759959	0.5124306868420696	0.008943602673650099	-5.080416211354374	0	0	0	0	0	0	-8.992599869457669	0	72.57991445532208	46.38607490604004	0	0	0	-8.992599869457669	0	72.57991445532208	46.38607490604004	0	0
252.57	-0.08647341600611586	-0.07716249057456018	-95.21119196486504	0	0.9399999999999999	0	0.409132285707326	0.3589221788744095	-0.1619136515826025	0.9142898329802425	0.01595736790301427	-5.080396024524571	0	0	0.2126655414900441	-0.0820346166458909	-0.07448427712549635	0.549465672997932	0.009589985120500416	-5.080396024524571	0	0	0	0	0	0	-8.992797408441456	0	72.58006406070581	46.38585448239174	0	0	0	-8.992797408441456	0	72.58006406070581	46.38585448239174	0	0
253.682	-0.1648361966685161	-0.01924205666802355	-95.21608326326469	0	0.9399999999999999	0	0.4031551337010042	0.4220669271780313	-0.1515613857907317	0.8956321540728129	0.01563172997529973	-5.08032523708704	0	0	0.2438183604006981	-0.1766089015218286	-0.07568306536602137	0.5208989803455126	0.009091402277310425	-5.08032523708704	0	0	0	0	0	0	-8.993404481620081	0	72.58053837099258	46.38511029591496	0	0	0	-8.993404481620081	0	72.58053837099258	46.38511029591496	0	0
254.957	-0.1673419862723202	-0.00200220884890067	-95.21991533607797	0	0.9399999999999999	0	0.3788551118263673	0.4042734276017684	-0.1551190653714512	0.9190800441600512	0.01604097285996777	-5.080305951914749	0	0	0.271361426481566	-0.1828452189583011	-0.08018389306572185	0.5501300349068328	0.009601580423235568	-5.080305951914749	0	0	0	0	0	0	-8.993581274722024	0	72.58067438258145	46.38490350829776	0	0	0	-8.993581274722024	0	72.58067438258145	46.38490350829776	0	0
